PathFileType	4	(X/Y/Z)	c:/Users/goper/Files/vsCode/490R/osim_files/C11/C11_Slow_04.trc
DataRate	CameraRate	NumFrames	NumMarkers	Units                	OrigDataRate	OrigDataStartFrame	OrigNumFrames
120.00	120.00	10	36	mm	120.0	855	1367
                Frame#	Time	LPSIS			LASIS			LTH1			LTH2			LTH3			LTH4			LLFE			LMFE			LSH1			LSH2			LSH3			LSH4			LLMAL			LMMAL			LCAL			LMTP5			LTOE			LMTP1			RPSIS			RASIS			RTH1			RTH2			RTH3			RTH4			RLFE			RMFE			RSH1			RSH2			RSH3			RSH4			RLMAL			RMMAL			RCAL			RMTP1			RTOE			RMTP5		
		X1	Y1	Z1	X2	Y2	Z2	X3	Y3	Z3	X4	Y4	Z4	X5	Y5	Z5	X6	Y6	Z6	X7	Y7	Z7	X8	Y8	Z8	X9	Y9	Z9	X10	Y10	Z10	X11	Y11	Z11	X12	Y12	Z12	X13	Y13	Z13	X14	Y14	Z14	X15	Y15	Z15	X16	Y16	Z16	X17	Y17	Z17	X18	Y18	Z18	X19	Y19	Z19	X20	Y20	Z20	X21	Y21	Z21	X22	Y22	Z22	X23	Y23	Z23	X24	Y24	Z24	X25	Y25	Z25	X26	Y26	Z26	X27	Y27	Z27	X28	Y28	Z28	X29	Y29	Z29	X30	Y30	Z30	X31	Y31	Z31	X32	Y32	Z32	X33	Y33	Z33	X34	Y34	Z34	X35	Y35	Z35	X36	Y36	Z36

855	7.11667	-814.67139	972.60767	308.35107	-991.88617	985.46863	370.49091	-1015.67499	600.06470	416.69730	-1037.13269	557.59747	414.41550	-1071.47852	621.25092	426.79138	-1084.22095	576.89703	419.35605	0.00000	0.00000	0.00000	0.00000	0.00000	0.00000	-1052.15149	396.43878	427.72144	-1057.90417	351.93982	427.53195	-1113.42053	400.24152	427.93195	-1111.45447	355.43777	427.58420	-1098.89453	94.24129	370.15283	-1131.37842	112.09815	278.57690	-1044.17786	60.15475	310.79837	-1210.40100	42.60591	403.31821	-1285.85156	63.11669	339.56696	-1247.41931	46.43837	292.60406	-815.68158	983.45929	222.04796	-978.38599	963.86005	136.12047	-860.92236	607.47577	109.29325	-861.13489	563.89221	114.91869	-923.77600	600.61261	115.76254	-914.00299	558.72949	119.09281	-864.37158	476.21024	130.60832	-845.77069	468.35526	241.63527	-748.18585	426.26700	118.73529	-722.37891	388.44992	121.30058	-795.70813	385.60995	122.56708	-761.96576	352.43274	122.61835	-563.10303	166.44269	168.26610	-596.48450	163.94914	260.34476	-495.25940	170.03625	225.22725	-668.84253	51.06834	243.45825	-674.66779	55.25507	191.21687	-623.31030	51.27365	133.54079
856	7.12500	-824.31567	973.12421	309.31073	-1001.53882	986.46899	371.46848	-1023.31842	600.74524	417.26334	-1044.61707	558.13348	414.88287	-1079.28564	621.65460	427.91776	-1091.72156	577.20862	420.36316	0.00000	0.00000	0.00000	0.00000	0.00000	0.00000	-1058.48438	397.15714	428.37375	-1063.46411	352.65732	428.08493	-1119.91565	400.04007	428.09222	-1117.07739	355.28104	427.64948	-1099.25305	94.36771	369.98328	-1131.80713	112.04890	278.48676	-1044.37842	60.30633	310.77737	-1210.52930	42.50641	403.54245	-1286.17700	62.30238	339.57669	-1247.81750	46.06620	292.64890	-825.29205	983.50983	222.97476	-988.17987	964.22205	137.59619	-875.88947	605.82648	109.65307	-876.90619	562.14606	115.16912	-938.91858	599.97253	115.86028	-929.85663	557.89636	119.08617	-881.11871	475.44620	130.19344	-863.71906	466.28406	241.49144	-764.66870	428.11679	118.64720	-737.95996	390.98660	121.12778	-811.11792	386.15570	121.95049	-776.37994	353.95685	121.98684	-572.44525	173.03494	167.17928	-606.28156	169.31155	258.84067	-505.25037	181.07910	224.35167	-671.26581	52.40972	243.28555	-677.24731	55.93158	190.96642	-625.52869	54.20374	133.26482
857	7.13333	-833.66248	973.63916	310.06635	-1010.89246	987.49823	372.44638	-1030.57898	601.46460	418.00067	-1051.64050	558.73309	415.42218	-1086.66663	621.97485	429.00748	-1098.81726	577.48779	421.25677	0.00000	0.00000	0.00000	0.00000	0.00000	0.00000	-1064.21094	397.82153	428.71686	-1068.48010	353.29449	428.25781	-1125.46252	399.89297	428.53314	-1122.07031	355.17328	427.94855	-1099.48315	94.42128	369.90381	-1132.11035	111.99979	278.44440	-1044.49976	60.38964	310.80829	-1210.66907	42.27024	403.59235	-1286.41919	61.63894	339.63138	-1247.92603	46.17390	292.35785	-834.64520	983.56842	223.75146	-997.62238	964.18958	138.86389	-891.09912	603.93475	110.04353	-892.91791	560.30347	115.39512	-954.16736	599.27161	115.87165	-945.89801	557.04535	118.92606	-898.42303	474.44577	130.00383	-882.33917	464.16278	241.50925	-781.95618	430.04330	118.71089	-754.17920	393.59723	121.06622	-827.18225	386.86212	121.34145	-791.51990	355.58871	121.23174	-582.78137	180.01172	166.08583	-616.66968	175.00037	257.42023	-516.39465	192.47066	223.33459	-674.28534	54.34339	243.04378	-680.33130	57.09780	190.63585	-628.45856	57.90228	133.00403
858	7.14167	-842.83344	974.13489	310.75574	-1020.02014	988.59070	373.43240	-1037.55627	602.03961	418.79517	-1058.22766	559.24292	416.15277	-1093.77905	622.21637	430.18924	-1105.57080	577.66248	422.32394	0.00000	0.00000	0.00000	0.00000	0.00000	0.00000	-1069.10364	398.48190	428.74777	-1072.82629	353.83752	428.33121	-1130.43640	399.63828	429.00034	-1126.45020	354.96552	428.31522	-1099.63123	94.46865	369.88309	-1132.26489	111.96908	278.45950	-1044.57581	60.42736	310.85632	-1210.71094	42.20902	403.76868	-1286.56702	61.10861	339.74335	-1248.04822	46.04202	292.35675	-843.74878	983.54669	224.58572	-1006.64343	964.28107	140.12004	-906.61133	601.98102	110.37762	-909.30457	558.32819	115.57991	-969.65179	598.64227	115.86343	-961.56226	555.69507	119.19334	-916.23730	473.52689	129.88634	-901.41443	462.11942	241.66318	-799.91577	432.00372	118.90443	-771.13464	396.31525	121.06245	-843.80078	387.69492	120.80986	-807.39960	357.41599	120.67297	-593.81049	187.09216	165.43222	-627.67175	181.17651	256.04294	-528.45691	204.40436	222.38353	-677.84045	57.04684	242.74274	-683.91730	59.04198	190.18755	-631.87146	62.62303	132.79021
859	7.15000	-851.74396	974.65491	311.43262	-1029.09143	989.67413	374.30624	-1044.16699	602.58087	419.60947	-1064.62659	559.55072	416.83640	-1100.55640	622.26520	431.39914	-1111.98950	577.62030	423.43323	0.00000	0.00000	0.00000	0.00000	0.00000	0.00000	-1073.21155	398.98706	428.57062	-1076.29419	354.27603	428.05481	-1134.60986	399.22842	429.58313	-1129.83704	354.59802	428.80676	-1099.68152	94.48347	369.88501	-1132.40332	111.89916	278.49854	-1044.59558	60.45473	310.87518	-1210.68262	42.07010	403.92615	-1286.66565	60.67573	339.87909	-1248.14221	45.96148	292.40002	-852.42206	983.65143	225.42387	-1015.42487	964.30280	141.25613	-921.99139	600.11920	110.73337	-925.61523	556.51984	115.88248	-985.13055	598.02063	115.87625	-978.64368	555.45782	118.87135	-934.16547	472.59003	129.76376	-920.77020	460.39236	242.05511	-818.32208	434.03568	119.14281	-788.67273	399.10425	121.12727	-860.92212	388.52454	120.32947	-823.80145	359.23926	120.19913	-606.89087	194.91156	163.61678	-639.34131	187.74673	254.90155	-541.30096	216.54381	221.82773	-682.04724	60.38816	242.20737	-688.36676	61.83070	189.76814	-635.86426	68.48273	132.27252
860	7.15833	-860.47882	975.13812	312.27515	-1037.82117	990.58704	375.23322	-1049.89343	603.49451	421.13629	-1070.52808	559.92426	417.60925	-1106.90527	622.26843	432.58014	-1118.09766	577.65326	424.38626	0.00000	0.00000	0.00000	0.00000	0.00000	0.00000	-1076.93848	399.16495	428.32803	-1079.27649	354.40836	427.64450	-1138.28735	398.54932	430.31836	-1132.83789	354.08325	429.20874	-1099.70483	94.46051	369.91327	-1132.49512	111.85678	278.49680	-1044.62488	60.41278	310.91058	-1210.67432	41.93136	404.00095	-1286.73608	60.37238	339.97397	-1248.21997	45.92499	292.41754	-861.04755	983.58411	226.35677	-1023.81946	964.41833	142.41452	-937.42700	598.24915	111.20827	-941.99567	554.76422	116.24116	-1000.61877	597.59161	115.86616	-994.98474	554.85089	118.90421	-952.38129	471.96188	129.66969	-940.12976	458.93192	242.54860	-837.16125	436.04620	119.27615	-806.57660	401.90628	121.18951	-878.45520	389.20575	119.79777	-840.71613	361.13193	119.85631	-619.52173	203.60864	162.82962	-651.59583	194.66341	254.00969	-555.54327	228.62868	220.34775	-687.20032	64.57526	241.64194	-693.76465	65.49792	189.27872	-642.17212	75.19883	131.52505
861	7.16667	-868.40027	975.90039	313.01556	-1046.53357	991.48376	375.87888	-1056.16870	603.94794	421.96896	-1076.45142	560.18774	418.37662	-1113.36792	622.18555	433.50174	-1124.18701	577.43750	425.20099	0.00000	0.00000	0.00000	0.00000	0.00000	0.00000	-1080.08447	399.36115	428.20734	-1081.93884	354.64688	427.35901	-1141.59985	397.75470	430.82370	-1135.79382	352.89035	429.19415	-1099.76880	94.44870	369.88867	-1132.54272	111.82687	278.42996	-1044.63232	60.41384	310.90140	-1210.65930	41.83447	404.05353	-1286.80115	60.16859	340.03534	-1248.28381	45.89507	292.41296	-869.40387	983.69214	227.33914	-1032.05713	964.49512	143.53294	-952.67023	596.63660	111.69623	-958.33386	553.24420	116.71028	-1015.88751	597.35712	115.89164	-1011.26691	554.56421	119.00191	-970.64142	471.50732	129.66084	-959.56293	457.93594	243.02896	-856.20697	438.11588	119.29938	-824.81793	404.67084	121.21378	-896.50085	390.45334	119.85696	-857.73724	363.15475	119.58517	-632.89215	212.29596	162.09518	-664.63287	201.90594	253.42416	-570.59991	241.07217	219.30760	-693.28064	69.13984	240.62015	-700.22327	69.79755	188.63020	-649.07159	82.80001	131.14301
862	7.17500	-877.42285	976.20166	314.13892	-1054.97937	992.29700	376.49213	-1062.14563	604.48804	422.97412	-1080.66638	561.40833	419.40485	-1119.64453	622.15564	434.26511	-1129.89612	577.37164	425.87772	0.00000	0.00000	0.00000	0.00000	0.00000	0.00000	-1084.55383	398.98352	427.12924	-1084.46521	354.68008	427.23361	-1144.59485	397.07199	431.24640	-1138.11536	352.30408	429.38690	-1099.74963	94.47851	369.86151	-1132.60193	111.78143	278.38828	-1044.60095	60.44342	310.86148	-1210.61609	41.74662	404.10587	-1286.83777	60.00931	340.07980	-1248.49365	45.65573	292.58401	-877.41882	983.77539	228.41167	-1040.14001	964.72247	144.34047	-967.76056	595.33783	112.32335	-974.26111	552.07196	117.25050	-1030.93774	597.44324	115.88169	-1027.32922	554.54248	118.91214	-988.73932	471.29510	129.71320	-979.14471	457.49481	243.39197	-875.37317	440.08716	119.34561	-843.27087	407.40845	121.17558	-914.56018	391.27277	119.00808	-875.13287	365.19168	119.24800	-647.41919	221.23145	161.29861	-678.03748	210.05226	252.55327	-586.77917	253.22855	218.31599	-700.46326	74.51959	239.47575	-707.64606	74.68663	187.92877	-657.23370	90.70683	130.77347
863	7.18333	-885.61536	976.72607	315.18253	-1063.51587	993.16486	377.02850	-1068.08069	605.00848	423.97098	-1087.67993	560.89319	420.17267	-1125.70557	622.23096	434.89227	-1135.66138	577.31378	426.45511	0.00000	0.00000	0.00000	0.00000	0.00000	0.00000	-1087.75525	399.12659	427.40768	-1086.46863	355.17535	427.71967	-1147.80457	396.40222	431.68448	-1140.74475	351.77991	429.59756	-1099.75098	94.46807	369.86935	-1132.76404	111.74278	278.32639	-1044.59729	60.39238	310.88602	-1210.61646	41.67740	404.12503	-1286.89905	59.84009	340.08987	-1248.36523	45.85130	292.34509	-885.44568	983.84082	229.49698	-1047.92969	965.11725	145.28748	-982.48804	594.44501	113.01038	-990.11658	551.35565	117.84834	-1045.68970	597.80981	115.75764	-1042.93933	554.88892	118.94403	-1006.85858	471.45901	129.79849	-998.13196	457.47989	243.88522	-894.69281	442.09067	119.33836	-861.84210	409.99628	121.20665	-932.93573	392.46591	118.99726	-893.03998	367.14191	119.26685	-662.93274	229.77188	160.68001	-692.48083	217.15269	252.48288	-603.78143	264.87845	217.49300	-708.76117	79.84165	238.57733	-716.51373	79.95708	187.05969	-666.73236	98.68611	130.53802
864	7.19167	-893.61243	977.24951	316.26630	-1071.65686	993.92212	377.45966	-1073.80713	605.48962	424.94571	-1092.99451	561.25171	420.99844	-1131.73254	622.12506	435.43481	-1141.46350	577.20514	427.00842	0.00000	0.00000	0.00000	0.00000	0.00000	0.00000	-1091.00989	399.32013	427.91879	-1089.39539	355.23843	428.08960	-1151.31018	395.86111	432.07584	-1143.57812	351.26398	429.92914	-1099.83862	94.45364	369.88434	-1132.86902	111.64046	278.27991	-1044.63757	60.34526	310.89902	-1210.68298	41.61243	404.16721	-1286.93042	59.69455	340.10922	-1248.57935	45.52885	292.50943	-893.19940	984.01807	230.57002	-1055.40369	965.60681	146.03397	-996.97998	593.99835	113.89170	-1005.54498	551.05084	118.61812	-1060.14526	598.63751	115.61591	-1058.36206	555.57721	118.82976	-1025.61218	470.71960	130.90190	-1016.86133	457.86243	244.24976	-914.13422	443.91833	119.54715	-880.58569	412.58362	121.25512	-953.28510	392.11026	120.74560	-910.98602	369.18643	119.26957	-679.25189	237.53458	160.29141	-707.23126	223.58748	252.86328	-621.49719	275.28036	217.02051	-718.02942	84.45776	237.55574	-726.34558	85.00138	186.28287	-677.95337	105.41314	130.81035
